<?xml version="1.0" encoding="UTF-8" standalone="no"?>
<svg
   xmlns:dc="http://purl.org/dc/elements/1.1/"
   xmlns:cc="http://creativecommons.org/ns#"
   xmlns:rdf="http://www.w3.org/1999/02/22-rdf-syntax-ns#"
   xmlns:svg="http://www.w3.org/2000/svg"
   xmlns="http://www.w3.org/2000/svg"
   xmlns:sodipodi="http://sodipodi.sourceforge.net/DTD/sodipodi-0.dtd"
   xmlns:inkscape="http://www.inkscape.org/namespaces/inkscape"
   version="1.1"
   id="svg2"
   xml:space="preserve"
   width="7111.1069"
   height="4000"
   viewBox="0 0 7111.1069 4000"
   sodipodi:docname="background-6360865.ai"><metadata
     id="metadata8"><rdf:RDF><cc:Work
         rdf:about=""><dc:format>image/svg+xml</dc:format><dc:type
           rdf:resource="http://purl.org/dc/dcmitype/StillImage" /></cc:Work></rdf:RDF></metadata><defs
     id="defs6"><clipPath
       clipPathUnits="userSpaceOnUse"
       id="clipPath20"><path
         d="M 0,3000 H 5333.33 V 0 H 0 Z"
         id="path18" /></clipPath></defs><sodipodi:namedview
     pagecolor="#ffffff"
     bordercolor="#666666"
     borderopacity="1"
     objecttolerance="10"
     gridtolerance="10"
     guidetolerance="10"
     inkscape:pageopacity="0"
     inkscape:pageshadow="2"
     inkscape:window-width="640"
     inkscape:window-height="480"
     id="namedview4" /><g
     id="g10"
     inkscape:groupmode="layer"
     inkscape:label="background-6360865"
     transform="matrix(1.3333333,0,0,-1.3333333,0,4000)"><path
       d="M 0,0 H 5333.329 V 3000 H 0 Z"
       style="fill:#ffeadb;fill-opacity:1;fill-rule:nonzero;stroke:none"
       id="path12" /><g
       id="g14"><g
         id="g16"
         clip-path="url(#clipPath20)"><g
           id="g22"
           transform="translate(5333.3301,3000)"><path
             d="m 0,0 v -323.163 c -197.883,-50.036 -420.694,-87.906 -670.333,-105.994 -1419.757,-102.878 -1996.332,-1070.842 -2345.682,-2016.467 -84.744,-229.388 -163.501,-405.52 -246.507,-554.376 H -5333.33 v 1732.045 c 218.674,316.843 446.426,707.513 671.226,1188.592 12.562,26.883 25.049,53.15 37.526,79.363 z"
             style="fill:#637373;fill-opacity:1;fill-rule:evenodd;stroke:none"
             id="path24" /></g><g
           id="g26"
           transform="translate(5333.3301,3000)"><path
             d="m 0,0 v -323.163 c -197.883,-50.036 -420.694,-87.906 -670.333,-105.994 -1419.757,-102.878 -1996.332,-1070.842 -2345.682,-2016.467 -84.744,-229.388 -163.501,-405.52 -246.507,-554.376 H -5333.33 v 163.246 c 330.672,152.368 639.475,380.353 856.377,720.363 385.403,604.146 607.45,1429.672 988.924,2116.391 z"
             style="fill:#679b9b;fill-opacity:1;fill-rule:evenodd;stroke:none"
             id="path28" /></g><g
           id="g30"
           transform="translate(5333.3301,3000)"><path
             d="m 0,0 v -323.163 c -197.883,-50.036 -420.694,-87.906 -670.333,-105.994 -1419.757,-102.878 -1996.332,-1070.842 -2345.682,-2016.467 -84.744,-229.388 -163.501,-405.52 -246.507,-554.376 h -968.932 c 220.925,272.852 435.676,607.303 628.884,1017.382 C -3055.602,-821.7 -2714.477,-284.659 -2277.053,0 Z"
             style="fill:#ff9a76;fill-opacity:1;fill-rule:evenodd;stroke:none"
             id="path32" /></g></g></g></g></svg>
